<?xml version="1.0" standalone="no"?>
<!DOCTYPE svg PUBLIC "-//W3C//DTD SVG 20010904//EN"
 "http://www.w3.org/TR/2001/REC-SVG-20010904/DTD/svg10.dtd">
<svg version="1.0" xmlns="http://www.w3.org/2000/svg"
 width="2000.000000pt" height="1165.000000pt" viewBox="0 0 2000.000000 1165.000000"
 preserveAspectRatio="xMidYMid meet">

<g transform="translate(0.000000,1165.000000) scale(0.100000,-0.100000)"
fill="#000000" stroke="none">
<path d="M15294 11635 c-4 -8 -4 -24 -1 -35 3 -11 4 -20 4 -20 -1 0 -24 7 -51
15 -81 25 -155 17 -178 -19 -4 -6 -8 -23 -8 -38 0 -23 -4 -28 -25 -28 -62 0
-159 -68 -170 -120 -4 -18 0 -40 10 -60 9 -17 13 -35 10 -40 -3 -5 -30 -14
-60 -20 -87 -18 -104 -61 -46 -114 29 -26 26 -48 -9 -74 -43 -32 -40 -63 11
-103 39 -31 42 -31 52 -14 22 39 56 65 87 65 28 0 100 -24 100 -33 0 -2 -11
-37 -25 -77 -31 -90 -31 -90 -1 -90 60 0 108 72 131 195 9 50 25 109 37 132
25 53 111 132 147 135 84 6 130 -12 233 -88 103 -75 197 -90 253 -38 l26 24
10 -28 c6 -15 16 -53 22 -86 8 -42 13 -53 18 -40 15 38 9 152 -11 216 -11 34
-20 77 -20 94 0 80 -79 208 -124 202 -13 -2 -22 -11 -24 -25 -4 -28 -7 -28
-40 -4 -74 51 -269 131 -323 131 -17 0 -32 -6 -35 -15z"/>
<path d="M15265 11120 c-3 -6 0 -12 7 -15 19 -6 148 -35 159 -35 20 0 7 21
-23 40 -36 21 -132 28 -143 10z"/>
<path d="M15246 10981 c-3 -5 13 -11 36 -14 22 -3 54 -15 70 -27 37 -28 39 0
2 29 -27 21 -98 29 -108 12z"/>
<path d="M15655 10970 c-3 -6 2 -13 12 -16 10 -3 39 -14 65 -24 56 -22 70 -11
34 25 -18 18 -36 25 -65 25 -22 0 -43 -5 -46 -10z"/>
<path d="M15258 10929 c-37 -21 -9 -77 32 -64 20 6 24 16 20 45 -2 14 -18 30
-30 30 -3 -1 -13 -5 -22 -11z"/>
<path d="M15511 10747 l-1 -167 -42 5 c-37 5 -39 4 -18 -5 13 -6 36 -10 50 -8
25 3 25 4 28 103 1 55 -2 132 -6 170 -8 62 -10 50 -11 -98z"/>
<path d="M15632 10861 c-10 -6 -2 -11 25 -16 21 -3 53 -16 71 -27 48 -29 41 2
-8 35 -26 18 -67 22 -88 8z"/>
<path d="M15633 10823 c-18 -7 -16 -48 3 -64 31 -26 70 25 44 56 -13 15 -25
17 -47 8z"/>
<path d="M15287 10594 c-26 -26 8 -105 53 -124 39 -16 48 -8 16 14 -29 18 -47
48 -55 89 -3 16 -9 25 -14 21z"/>
<path d="M14509 10240 c-132 -12 -279 -38 -344 -60 -174 -60 -291 -207 -335
-420 -11 -52 -37 -189 -59 -304 -37 -196 -39 -210 -23 -223 36 -30 119 -62
172 -66 70 -6 68 -6 49 -17 -33 -19 -193 26 -214 60 -20 32 -32 -1 -63 -168
-34 -183 -43 -247 -88 -592 -14 -113 -38 -290 -53 -393 l-26 -188 -75 -3 c-94
-3 -161 -29 -271 -102 l-82 -55 -56 25 c-218 97 -495 186 -731 235 -115 24
-173 41 -223 67 -37 20 -75 33 -82 30 -8 -3 -14 0 -12 6 2 12 -85 52 -138 63
-17 3 2 -10 45 -32 41 -21 80 -41 85 -45 124 -91 177 -134 210 -167 21 -23 45
-41 53 -41 7 0 11 -4 8 -9 -3 -4 11 -29 30 -54 l36 -46 30 15 c16 9 32 13 34
11 3 -2 -9 -10 -26 -17 -16 -7 -30 -15 -30 -19 1 -3 24 -37 52 -75 l51 -69 45
49 c24 27 38 40 31 29 -7 -11 -26 -35 -43 -52 l-30 -33 35 -36 c31 -33 123
-94 142 -94 4 0 7 28 8 63 1 34 4 73 8 87 4 14 7 -19 6 -72 0 -54 -1 -98 -3
-98 -19 0 -118 62 -154 97 l-46 45 -35 -47 c-35 -49 -80 -133 -91 -171 -5 -17
6 -33 57 -80 60 -57 169 -124 199 -124 13 0 13 9 2 68 -7 37 -13 85 -12 107 0
30 3 24 9 -25 20 -157 28 -170 110 -170 38 0 139 27 139 37 0 3 -15 29 -34 57
-39 60 -70 139 -63 158 3 8 6 5 6 -7 1 -29 53 -135 85 -172 l28 -33 58 45 c31
24 77 67 100 95 l42 51 -49 52 c-28 29 -56 64 -62 77 -7 14 6 4 28 -22 23 -26
67 -70 99 -99 31 -28 44 -44 29 -35 l-29 18 -86 -85 c-48 -46 -96 -89 -107
-95 -19 -10 -18 -12 20 -47 32 -29 34 -32 9 -16 -17 11 -36 26 -42 34 -10 12
-21 11 -69 -6 -41 -13 -76 -18 -116 -15 -56 4 -58 4 -53 -18 12 -46 12 -48 -3
-15 -11 26 -28 40 -75 61 -67 30 -174 107 -206 147 -11 14 -22 24 -24 22 -2
-2 -8 -31 -14 -64 l-11 -60 4 64 c3 35 7 66 10 69 3 3 -7 21 -21 39 -53 70
-136 194 -132 198 2 3 35 -40 72 -95 76 -110 96 -133 96 -106 0 23 35 90 82
158 l40 57 -49 70 c-26 39 -52 71 -58 71 -32 0 -222 -172 -308 -280 l-28 -35
22 35 c12 19 42 58 66 87 24 28 43 54 43 58 0 4 -27 42 -61 86 l-61 78 -29
-14 c-16 -9 -55 -36 -86 -62 -81 -64 -96 -73 -44 -24 25 23 66 56 93 73 26 17
48 35 48 38 0 23 -213 200 -240 200 -6 0 -44 -20 -83 -45 -51 -33 -62 -37 -37
-16 19 17 50 38 68 48 17 10 32 21 32 25 0 10 -91 50 -153 68 -26 7 -45 15
-43 17 6 7 131 -34 177 -58 l37 -19 89 36 c48 20 97 40 108 44 17 6 7 14 -54
45 -74 37 -109 43 -173 30 -64 -12 -198 -57 -198 -66 0 -5 -8 -9 -18 -9 -10 0
-49 -21 -86 -46 -38 -25 -70 -44 -72 -42 -2 2 23 22 55 43 36 24 54 43 48 47
-7 4 -3 6 8 6 11 -1 54 12 95 29 41 17 109 37 150 44 l75 14 -65 7 c-118 12
-286 -13 -409 -62 -85 -33 -96 -40 -80 -52 10 -7 8 -7 -8 -3 -13 3 -23 2 -23
-3 0 -15 -46 -31 -153 -52 -97 -20 -368 -88 -375 -95 -3 -3 1045 -1423 1068
-1448 4 -4 72 8 151 27 79 19 182 44 229 55 224 53 908 217 1015 243 219 53
233 55 250 31 8 -11 112 -92 232 -179 120 -87 340 -249 489 -360 l272 -202 6
-63 c50 -474 170 -893 372 -1296 39 -79 70 -143 68 -143 -2 0 -144 -29 -316
-65 -172 -35 -556 -114 -853 -175 -297 -61 -623 -128 -725 -149 -102 -21 -346
-71 -544 -112 -197 -40 -354 -75 -349 -76 11 -4 980 190 2310 462 254 52 471
95 482 95 11 0 22 -9 26 -20 9 -28 199 -312 220 -330 10 -8 -11 28 -47 80 -89
130 -172 269 -165 276 6 6 579 126 582 121 14 -21 161 -434 156 -438 -3 -3
-741 -153 -1639 -333 l-1632 -328 -78 23 c-520 151 -889 491 -1073 991 -38
105 -72 239 -62 248 4 4 76 19 158 33 83 14 278 49 435 76 680 122 910 163
980 176 41 8 242 44 445 80 373 67 480 86 590 107 108 20 166 64 194 147 34
101 -19 213 -121 255 -53 23 -88 20 -271 -19 -89 -19 -252 -53 -362 -75 -213
-43 -417 -86 -605 -125 -63 -13 -182 -38 -265 -55 -82 -17 -202 -42 -265 -55
-63 -13 -182 -38 -265 -55 -82 -17 -170 -35 -195 -40 -168 -36 -480 -100 -485
-100 -12 0 -4 143 15 258 50 309 194 600 397 806 43 43 68 73 57 66 -19 -12
-58 -2 -318 78 -163 51 -303 92 -311 92 -19 0 -135 -155 -230 -308 -161 -260
-279 -537 -334 -785 -10 -49 -21 -90 -23 -91 -1 -1 -23 -11 -48 -21 -80 -34
-168 -95 -224 -156 -30 -33 -97 -129 -148 -215 -104 -176 -171 -256 -249 -299
-48 -27 -63 -30 -139 -29 -71 0 -104 7 -200 39 -244 81 -384 35 -473 -153 -30
-63 -32 -74 -32 -177 0 -101 2 -115 30 -175 130 -281 518 -489 991 -530 291
-25 647 47 916 187 l67 35 103 -89 c57 -49 130 -110 163 -135 66 -50 263 -174
367 -231 l67 -37 182 204 182 205 56 -28 c72 -37 228 -95 311 -116 36 -9 66
-18 68 -20 3 -3 -248 -577 -564 -1294 -57 -129 -102 -237 -99 -239 9 -9 341
40 557 83 818 161 1476 420 1921 757 111 84 271 245 346 347 158 218 241 465
241 720 l0 106 423 84 c232 46 431 86 443 89 19 3 31 -24 134 -300 62 -166
116 -307 121 -312 4 -5 49 8 101 29 268 108 554 227 561 234 4 4 -20 119 -54
255 -34 136 -60 248 -58 251 2 2 211 45 464 95 253 50 466 93 473 95 30 11 7
-13 -38 -38 -27 -15 -52 -32 -55 -38 -5 -8 327 -569 356 -603 4 -5 67 24 141
66 146 83 504 284 611 342 37 21 67 40 67 43 0 6 -233 -3 -290 -12 -19 -3 -53
-7 -75 -10 -22 -3 -60 -9 -85 -14 -56 -12 -69 -4 -100 56 -14 26 -35 64 -47
85 -18 29 -21 46 -16 85 4 36 1 58 -11 81 -17 33 -50 43 -59 20 -4 -10 -8 -9
-16 2 -16 22 -14 27 17 35 15 3 65 25 112 47 47 22 156 69 244 104 465 187
862 453 1189 794 320 334 574 746 717 1167 l29 82 -115 98 c-480 408 -1018
655 -1664 762 -243 41 -657 53 -895 27 -82 -9 -202 -21 -265 -26 -63 -5 -150
-16 -193 -25 -71 -14 -438 -100 -463 -109 -8 -3 -205 315 -384 623 -31 54 -43
104 -135 571 -14 69 -28 133 -31 142 -8 27 -42 41 -100 40 -57 0 -98 -18 -203
-88 -74 -48 -141 -79 -141 -65 0 6 20 19 44 30 25 10 72 38 106 61 114 77 210
102 269 70 20 -10 22 -10 17 7 -3 10 -37 171 -75 358 -38 187 -77 360 -86 385
-41 115 -124 201 -266 278 -105 57 -109 58 -109 40 0 -27 -50 -118 -85 -157
-84 -93 -239 -123 -355 -69 -144 67 -220 229 -176 378 9 29 16 57 16 62 0 9
-79 8 -201 -2z m374 -703 c130 -47 201 -101 345 -265 41 -46 92 -92 115 -104
23 -12 37 -23 30 -25 -23 -8 -79 31 -138 95 -123 135 -192 199 -247 230 -67
39 -189 82 -232 83 -17 0 -40 5 -51 10 -44 21 113 -1 178 -24z m-173 -142 c0
-3 -32 -21 -71 -40 -152 -77 -352 -125 -521 -125 -136 0 -104 16 45 23 177 8
371 60 497 132 25 14 50 19 50 10z m316 -131 c40 -14 68 -36 149 -119 55 -57
113 -111 128 -120 15 -10 26 -20 23 -22 -12 -12 -75 37 -168 131 -121 122
-142 131 -280 123 -49 -2 -88 -1 -88 4 0 22 170 24 236 3z m-389 -106 c55 -9
81 -9 109 0 36 11 54 9 41 -4 -18 -19 -100 -22 -202 -8 -90 13 -123 14 -185 4
-85 -14 -187 -56 -243 -101 -49 -40 -59 -32 -12 10 57 50 174 101 260 115 41
6 144 -1 232 -16z m1157 -44 c31 -12 15 -19 -42 -20 -43 -1 -82 -11 -159 -42
-97 -40 -163 -53 -163 -32 0 6 13 10 30 10 16 0 53 9 82 21 177 71 210 79 252
63z m-1821 -149 c35 -14 15 -22 -35 -13 -29 4 -100 5 -158 2 -109 -7 -130 2
-38 16 58 10 203 6 231 -5z m1404 -662 c16 -90 27 -163 24 -163 -3 1 -73 65
-155 144 l-149 143 73 164 c40 90 82 182 93 204 l21 40 32 -185 c18 -102 46
-258 61 -347z m-2009 -499 c-4 -3 -12 5 -18 18 -12 22 -12 22 6 6 10 -10 15
-20 12 -24z m477 3 c106 -29 255 -95 255 -114 0 -3 -15 4 -32 14 -66 38 -64
40 -83 -55 -17 -88 -39 -150 -29 -81 6 33 4 36 -27 47 l-34 11 36 -5 37 -6 11
52 c16 74 15 76 -31 93 -63 23 -128 41 -132 36 -2 -2 -6 -36 -8 -76 l-5 -72
38 -6 c22 -4 41 -10 44 -15 3 -5 -11 -4 -31 1 -48 14 -60 7 -68 -35 -4 -19
-11 -38 -16 -41 -6 -4 -6 4 0 20 6 15 10 37 10 50 0 19 -6 25 -32 28 -30 4
-30 4 4 3 33 -1 37 2 42 28 3 15 6 50 6 76 l0 47 -52 7 c-29 3 -76 6 -104 6
l-51 0 13 -72 c7 -40 13 -91 12 -113 -1 -29 -2 -32 -5 -12 -4 23 -9 27 -36 27
-18 0 -49 -3 -70 -7 -38 -6 -39 -7 -33 -42 l5 -36 -11 30 c-6 17 -12 32 -14
34 -4 5 -104 -29 -148 -51 l-40 -20 25 -19 c13 -10 20 -19 14 -18 -5 0 -18 6
-29 14 -26 20 -44 9 -145 -89 -46 -45 -79 -72 -73 -61 11 22 111 120 155 151
l28 20 -66 53 c-36 29 -71 63 -77 75 -10 20 -10 20 8 4 17 -15 21 -15 39 -1
27 20 144 79 175 87 14 4 -15 -13 -65 -37 -142 -70 -139 -65 -66 -125 l62 -52
41 21 c23 12 68 31 99 43 l58 22 -32 63 c-17 35 -40 67 -51 71 -18 6 -15 9 19
18 53 15 133 31 170 34 59 6 231 -9 290 -25z m3234 -215 c351 -354 649 -1128
736 -1916 19 -171 31 -471 19 -479 -9 -5 -292 -68 -629 -138 -582 -122 -958
-199 -961 -197 -2 3 -104 414 -104 421 0 3 30 8 68 12 300 32 560 222 658 481
13 36 24 70 23 77 0 6 -8 -10 -18 -38 -100 -281 -363 -481 -658 -502 l-81 -6
-11 39 c-5 21 -49 194 -96 384 -47 190 -89 353 -93 362 -4 9 -96 96 -205 194
l-198 177 38 39 c91 94 261 184 407 215 101 21 297 13 391 -17 233 -74 404
-227 491 -438 13 -32 24 -50 24 -41 0 10 -21 59 -47 110 -39 78 -62 109 -137
184 -132 130 -269 198 -461 226 -232 33 -514 -59 -670 -220 -21 -23 -43 -41
-47 -41 -15 0 -709 633 -701 639 18 16 478 174 583 201 l112 28 76 -54 75 -54
21 31 c44 65 228 299 235 299 4 0 11 -4 17 -10 12 -12 185 -50 225 -50 15 0
119 22 231 49 371 90 532 126 577 130 7 0 57 -43 110 -97z m-1808 -69 c120
-86 219 -160 219 -164 0 -4 -24 -10 -52 -13 -40 -5 -80 1 -162 22 l-108 28
-14 39 c-12 36 -43 72 -86 100 -11 7 -18 32 -21 78 -4 37 -4 67 -1 67 4 0 105
-71 225 -157z m-1583 130 c-10 -2 -28 -2 -40 0 -13 2 -5 4 17 4 22 1 32 -1 23
-4z m-685 -23 c3 -11 3 -20 1 -20 -2 0 -8 9 -14 20 -6 11 -7 20 -2 20 6 0 12
-9 15 -20z m-188 -74 c0 -41 -3 -72 -7 -69 -14 8 -8 143 6 143 0 0 1 -33 1
-74z m1460 17 c-3 -21 -10 -42 -15 -47 -5 -5 -4 9 1 30 4 22 9 42 9 47 0 4 3
7 6 7 3 0 3 -17 -1 -37z m-235 17 c8 -5 11 -10 5 -10 -5 0 -17 5 -25 10 -8 5
-10 10 -5 10 6 0 17 -5 25 -10z m90 -35 c14 -8 21 -14 15 -14 -5 0 -21 6 -35
14 -14 8 -20 14 -15 14 6 0 21 -6 35 -14z m55 -25 c3 -6 -1 -7 -9 -4 -18 7
-21 14 -7 14 6 0 13 -4 16 -10z m335 -5 c0 -8 -4 -15 -10 -15 -5 0 -7 7 -4 15
4 8 8 15 10 15 2 0 4 -7 4 -15z m-180 -37 c0 -5 -5 -6 -11 -2 -8 5 -10 -1 -7
-20 3 -14 1 -26 -3 -26 -5 0 -9 3 -9 8 0 4 -4 13 -9 20 -6 11 -25 10 -100 -4
-76 -14 -94 -21 -101 -38 -7 -17 -9 -18 -9 -3 -1 15 -13 17 -103 17 -57 0
-112 3 -124 6 -17 4 -22 -1 -33 -36 -7 -23 -11 -43 -9 -45 7 -6 138 -25 176
-25 35 0 42 3 42 20 0 11 5 20 10 20 6 0 10 -7 10 -16 0 -13 7 -15 42 -9 24 4
60 14 82 21 21 8 41 12 43 10 6 -5 -81 -33 -129 -42 -30 -5 -38 -11 -38 -28
-1 -18 -2 -19 -13 -5 -8 10 -36 18 -82 22 -38 4 -89 10 -112 13 l-43 7 0 -82
c0 -58 4 -81 13 -82 9 0 9 -2 0 -5 -7 -3 -10 -20 -7 -42 l4 -37 -13 39 c-11
31 -23 44 -60 63 -26 13 -47 26 -47 28 0 3 18 -4 40 -15 21 -11 43 -20 47 -20
4 0 9 36 9 80 l2 80 -47 15 c-42 14 -14 13 35 -1 18 -5 23 0 29 28 5 18 9 38
9 43 2 17 19 24 37 14 10 -5 66 -9 124 -9 98 0 107 2 112 20 3 11 9 20 14 20
5 0 6 -7 2 -16 -5 -13 -1 -15 23 -11 16 3 59 11 97 18 37 7 67 16 67 20 0 4 9
5 20 2 11 -3 20 -10 20 -15z m163 -2 c15 -1 27 -7 27 -14 0 -9 -7 -11 -22 -6
-53 17 -92 22 -124 17 -24 -4 -34 -2 -34 7 0 10 14 11 63 5 34 -4 74 -8 90 -9z
m184 -53 c-2 -16 -4 -5 -4 22 0 28 2 40 4 28 2 -13 2 -35 0 -50z m-884 30 c-7
-2 -21 -2 -30 0 -10 3 -4 5 12 5 17 0 24 -2 18 -5z m636 -83 c21 -58 22 -59
54 -54 18 3 37 7 44 9 7 2 15 0 18 -5 4 -6 -11 -10 -33 -10 -47 0 -54 -6 -41
-34 l10 -21 -18 21 c-22 25 -26 24 -206 -55 -65 -28 -125 -51 -134 -51 -12 0
-14 -8 -9 -37 l5 -38 -13 30 c-14 29 -15 30 -87 29 -41 -1 -51 1 -24 3 91 6
94 8 84 50 -11 50 -11 65 1 58 6 -3 10 -18 10 -33 1 -66 14 -65 203 17 65 28
125 51 133 51 18 0 18 -1 -6 51 -18 40 -26 79 -16 79 2 0 13 -27 25 -60z m317
35 c10 -8 15 -14 9 -14 -5 0 -19 6 -29 14 -11 8 -15 15 -10 15 6 0 19 -7 30
-15z m75 -12 c13 -15 12 -15 -8 -4 -24 12 -29 21 -14 21 5 0 15 -7 22 -17z
m108 -67 l-1 -41 -8 47 c-5 26 -11 53 -15 60 -3 7 1 4 9 -6 9 -12 16 -37 15
-60z m-69 -74 c-1 -11 -6 -7 -17 13 -8 17 -21 37 -27 46 -6 8 1 2 17 -13 15
-16 27 -36 27 -46z m-162 48 c23 -10 42 -22 42 -25 0 -3 -14 2 -31 10 -17 9
-49 20 -72 25 -35 7 -37 8 -12 9 17 0 49 -8 73 -19z m-769 -146 c9 -8 -65 -2
-84 6 -13 6 -2 7 30 3 28 -3 52 -7 54 -9z m806 -1397 l360 -272 147 -390 c81
-214 147 -397 147 -405 1 -12 -55 -27 -261 -70 -145 -29 -278 -55 -295 -58
l-33 -4 -75 153 c-168 342 -279 693 -334 1054 -27 176 -35 265 -25 264 5 0
171 -123 369 -272z m3085 -638 c0 -99 -38 -287 -79 -389 l-26 -64 -85 -27
c-47 -15 -348 -80 -669 -144 -321 -64 -589 -119 -596 -121 -14 -6 -130 445
-118 456 5 4 80 21 168 39 263 54 1183 248 1275 269 128 30 130 30 130 -19z
m-76 -541 c17 -23 22 -88 8 -88 -5 0 -16 16 -25 35 -30 62 -17 101 17 53z
m-110 -421 c22 -16 18 -55 -6 -71 -40 -24 -80 44 -42 71 10 7 21 13 24 13 3 0
14 -6 24 -13z"/>
<path d="M13505 7814 c-48 -7 -116 -26 -113 -33 2 -3 18 -35 37 -71 l33 -66
62 9 c33 5 66 11 72 12 7 2 7 24 -1 77 -12 80 -14 81 -90 72z"/>
<path d="M16891 6154 c0 -11 3 -14 6 -6 3 7 2 16 -1 19 -3 4 -6 -2 -5 -13z"/>
<path d="M16891 5884 c0 -11 3 -14 6 -6 3 7 2 16 -1 19 -3 4 -6 -2 -5 -13z"/>
<path d="M11852 8021 c-107 -44 -113 -49 -89 -63 29 -16 128 -96 178 -145 l47
-45 65 26 c36 14 88 31 116 38 28 6 51 15 51 19 0 18 -248 211 -269 208 -3 0
-48 -17 -99 -38z"/>
<path d="M8299 7744 c-173 -91 -322 -173 -333 -182 -27 -25 -46 -67 -46 -101
0 -16 23 -74 51 -128 73 -139 352 -670 409 -778 26 -49 98 -187 160 -305 130
-251 154 -280 229 -280 46 0 92 22 567 272 572 302 559 292 551 383 -4 41 -36
110 -189 400 -102 193 -220 415 -262 495 -42 80 -81 144 -87 142 -7 -2 -93
-46 -193 -99 -147 -78 -189 -96 -226 -97 -74 -2 -91 19 -210 242 l-106 201
-315 -165z m431 -242 c0 -16 -421 -242 -450 -242 -26 0 -3 19 83 67 105 59
348 183 360 183 4 0 7 -4 7 -8z m408 -63 c-6 -19 -720 -399 -749 -399 -29 0
10 26 169 113 205 112 563 296 575 297 5 0 7 -5 5 -11z m162 -147 c0 -18 -805
-440 -817 -428 -4 3 -4 8 -2 10 27 26 788 425 812 426 4 0 7 -4 7 -8z m90
-169 c0 -10 -15 -18 -245 -143 -247 -133 -566 -293 -573 -286 -3 3 -3 8 -1 10
23 22 792 425 812 426 4 0 7 -3 7 -7z m90 -171 c0 -21 -804 -442 -817 -428 -4
3 -4 8 -2 10 23 22 792 425 812 426 4 0 7 -4 7 -8z m90 -170 c0 -10 -163 -102
-445 -250 -257 -135 -364 -187 -372 -178 -4 3 -4 8 -2 10 26 22 793 425 812
426 4 0 7 -4 7 -8z"/>
<path d="M12165 7821 c-76 -23 -167 -62 -163 -70 2 -4 30 -41 62 -83 l59 -76
71 57 c40 31 83 63 96 72 l24 16 -43 52 c-23 28 -44 51 -44 50 -1 0 -29 -9
-62 -18z"/>
<path d="M6575 6076 c-47 -15 -141 -62 -149 -74 -8 -13 67 -183 79 -178 5 2
17 7 26 10 10 5 20 -4 31 -28 l17 -34 -67 -39 c-86 -49 -246 -207 -292 -289
-35 -62 -35 -62 -62 -48 -31 16 -32 18 -19 43 9 15 -1 23 -65 56 -85 44 -82
45 -128 -50 -45 -93 -46 -90 36 -131 72 -36 72 -36 86 -15 13 19 16 20 44 5
24 -12 29 -20 24 -37 -18 -65 -13 -63 11 3 16 41 43 102 62 135 40 71 133 190
161 205 30 16 24 -2 -11 -36 -48 -45 -115 -143 -153 -225 -59 -124 -71 -185
-70 -354 0 -141 2 -156 31 -243 18 -54 26 -91 20 -89 -19 6 -64 156 -76 253
-6 50 -9 120 -6 155 l4 64 -10 -65 c-14 -87 3 -227 42 -344 83 -252 283 -452
534 -535 282 -94 572 -44 807 139 133 104 249 282 294 455 27 100 27 332 0
430 -59 215 -202 407 -385 515 -39 23 -71 44 -71 47 0 2 5 13 10 24 9 16 15
17 31 8 12 -6 22 -9 24 -7 2 2 18 37 36 78 l31 73 -24 19 c-27 21 -121 58
-147 58 -16 0 -28 -21 -79 -141 -2 -4 7 -10 18 -14 18 -6 20 -12 15 -33 -4
-15 -8 -29 -10 -30 -2 -2 -30 4 -62 14 -78 25 -353 26 -426 2 l-47 -16 -15 35
c-16 37 -13 53 10 53 8 0 16 4 19 9 8 13 -65 181 -78 180 -6 0 -29 -6 -51 -13z
m15 -326 c0 -13 -140 -93 -148 -85 -8 8 21 30 92 67 59 32 56 31 56 18z m494
-45 c38 -8 70 -16 71 -17 2 -2 -10 -43 -26 -93 -17 -49 -28 -96 -26 -105 3
-16 67 150 67 176 0 21 16 18 97 -23 95 -47 192 -127 249 -206 72 -97 73 -89
-9 -131 -40 -20 -83 -46 -97 -56 l-25 -20 30 10 30 10 -25 -20 c-36 -28 -22
-25 82 20 51 22 96 40 100 40 7 0 30 -69 47 -142 21 -92 6 -319 -25 -369 -2
-5 -26 0 -52 10 -70 28 -152 51 -152 43 0 -9 154 -72 176 -72 13 0 15 -6 9
-27 -10 -44 -79 -153 -134 -215 -48 -53 -176 -148 -199 -148 -6 0 -29 37 -52
83 -71 141 -80 125 -13 -22 39 -86 41 -81 -62 -112 -118 -36 -304 -36 -399 1
l-24 9 29 87 c17 48 28 94 27 103 -3 16 -68 -140 -68 -165 0 -21 -24 -17 -90
16 -64 32 -155 102 -204 157 -32 36 -106 143 -106 153 1 3 33 20 73 38 40 18
83 42 97 53 25 19 24 19 -28 -1 -29 -11 -75 -31 -103 -45 l-50 -26 -13 33 c-8
18 -22 62 -32 98 -34 126 -16 399 25 387 9 -3 54 -17 100 -31 46 -14 87 -24
89 -21 6 6 -76 41 -143 60 l-54 16 24 55 c52 117 153 236 265 308 l54 36 42
-81 c46 -88 72 -123 59 -79 -4 14 -23 56 -42 93 -18 37 -31 72 -28 77 6 10
115 47 176 59 69 14 188 12 263 -4z m502 -394 c-3 -5 -16 -11 -28 -14 -22 -6
-22 -5 -4 8 22 17 40 20 32 6z"/>
<path d="M6976 5490 c-3 -19 -18 -120 -32 -225 -21 -158 -30 -196 -50 -226
-13 -19 -24 -42 -24 -52 0 -53 59 -100 113 -90 35 7 67 48 66 82 l-2 26 -4
-25 c-14 -79 -118 -97 -148 -27 -31 74 44 135 117 96 19 -10 20 -9 14 28 -3
21 -13 126 -21 233 -18 219 -20 229 -29 180z"/>
<path d="M6926 5029 c-34 -27 -32 -64 5 -92 24 -17 30 -18 55 -6 40 19 47 79
12 103 -30 21 -40 20 -72 -5z"/>
<path d="M3788 5373 c6 -2 18 -2 25 0 6 3 1 5 -13 5 -14 0 -19 -2 -12 -5z"/>
<path d="M3688 5363 c6 -2 18 -2 25 0 6 3 1 5 -13 5 -14 0 -19 -2 -12 -5z"/>
<path d="M3503 5353 c9 -2 23 -2 30 0 6 3 -1 5 -18 5 -16 0 -22 -2 -12 -5z"/>
<path d="M3373 5343 c15 -2 37 -2 50 0 12 2 0 4 -28 4 -27 0 -38 -2 -22 -4z"/>
<path d="M3243 5333 c15 -2 37 -2 50 0 12 2 0 4 -28 4 -27 0 -38 -2 -22 -4z"/>
<path d="M3083 5323 c15 -2 39 -2 55 0 15 2 2 4 -28 4 -30 0 -43 -2 -27 -4z"/>
<path d="M4225 5323 c-71 -5 -450 -32 -820 -58 -449 -31 -487 -34 -492 -39 -4
-4 15 -348 22 -396 2 -14 6 -70 9 -125 8 -125 38 -529 40 -532 0 0 213 14 471
33 259 18 542 38 630 44 88 5 192 13 230 16 l70 6 -6 92 c-4 50 -19 269 -34
486 -33 501 -31 480 -58 478 -12 -1 -40 -3 -62 -5z"/>
<path d="M2927 5313 c18 -2 50 -2 70 0 21 2 7 4 -32 4 -38 0 -55 -2 -38 -4z"/>
<path d="M2842 5273 c1 -37 1 -37 5 -6 3 19 11 34 21 36 12 3 10 5 -5 6 -20 1
-23 -3 -21 -36z"/>
<path d="M2853 5160 c0 -36 2 -50 4 -32 2 17 2 47 0 65 -2 17 -4 3 -4 -33z"/>
<path d="M6112 5160 c0 -14 2 -19 5 -12 2 6 2 18 0 25 -3 6 -5 1 -5 -13z"/>
<path d="M2863 5030 c0 -36 3 -99 7 -140 6 -68 7 -70 7 -20 1 30 -2 93 -6 140
-8 82 -8 83 -8 20z"/>
<path d="M4402 4840 c0 -14 2 -19 5 -12 2 6 2 18 0 25 -3 6 -5 1 -5 -13z"/>
<path d="M2883 4740 c0 -36 2 -50 4 -32 2 17 2 47 0 65 -2 17 -4 3 -4 -33z"/>
<path d="M2890 4650 c-1 -14 -3 -38 -3 -54 l-2 -30 -235 -62 c-129 -34 -236
-63 -237 -63 -1 -1 25 -103 58 -228 32 -126 71 -276 86 -335 19 -74 32 -108
41 -108 8 0 74 16 146 34 160 43 273 72 481 126 88 22 183 48 211 56 l52 14
-15 50 c-8 28 -13 57 -10 64 3 8 27 14 68 15 69 2 96 11 33 11 -21 0 -160 -9
-309 -20 -148 -11 -282 -20 -296 -20 l-25 0 -18 273 c-18 275 -22 322 -26 277z"/>
<path d="M4412 4650 c0 -14 2 -19 5 -12 2 6 2 18 0 25 -3 6 -5 1 -5 -13z"/>
<path d="M4423 4535 c0 -27 2 -38 4 -22 2 15 2 37 0 50 -2 12 -4 0 -4 -28z"/>
<path d="M2362 4470 c0 -14 2 -19 5 -12 2 6 2 18 0 25 -3 6 -5 1 -5 -13z"/>
<path d="M4432 4420 c0 -19 2 -27 5 -17 2 9 2 25 0 35 -3 9 -5 1 -5 -18z"/>
<path d="M2401 4314 c0 -11 3 -14 6 -6 3 7 2 16 -1 19 -3 4 -6 -2 -5 -13z"/>
<path d="M4440 4250 l0 -49 -57 -4 -58 -3 63 -2 62 -2 0 55 c0 30 -2 55 -5 55
-3 0 -5 -22 -5 -50z"/>
<path d="M2421 4234 c0 -11 3 -14 6 -6 3 7 2 16 -1 19 -3 4 -6 -2 -5 -13z"/>
<path d="M4218 4183 c18 -2 45 -2 60 0 15 2 0 4 -33 4 -33 0 -45 -2 -27 -4z"/>
<path d="M4068 4173 c18 -2 45 -2 60 0 15 2 0 4 -33 4 -33 0 -45 -2 -27 -4z"/>
<path d="M3928 4163 c17 -2 47 -2 65 0 17 2 3 4 -33 4 -36 0 -50 -2 -32 -4z"/>
<path d="M15060 4166 c0 -2 8 -10 18 -17 15 -13 16 -12 3 4 -13 16 -21 21 -21
13z"/>
<path d="M3778 4153 c17 -2 47 -2 65 0 17 2 3 4 -33 4 -36 0 -50 -2 -32 -4z"/>
<path d="M3648 4143 c17 -2 47 -2 65 0 17 2 3 4 -33 4 -36 0 -50 -2 -32 -4z"/>
<path d="M2461 4084 c0 -11 3 -14 6 -6 3 7 2 16 -1 19 -3 4 -6 -2 -5 -13z"/>
<path d="M2481 4004 c0 -11 3 -14 6 -6 3 7 2 16 -1 19 -3 4 -6 -2 -5 -13z"/>
<path d="M3522 3964 c-7 -8 -8 -14 -3 -14 10 0 25 19 20 25 -2 1 -10 -3 -17
-11z"/>
<path d="M11958 3973 c6 -2 18 -2 25 0 6 3 1 5 -13 5 -14 0 -19 -2 -12 -5z"/>
<path d="M11908 3963 c6 -2 18 -2 25 0 6 3 1 5 -13 5 -14 0 -19 -2 -12 -5z"/>
<path d="M2501 3924 c0 -11 3 -14 6 -6 3 7 2 16 -1 19 -3 4 -6 -2 -5 -13z"/>
<path d="M3398 3923 c7 -3 16 -2 19 1 4 3 -2 6 -13 5 -11 0 -14 -3 -6 -6z"/>
<path d="M3318 3903 c7 -3 16 -2 19 1 4 3 -2 6 -13 5 -11 0 -14 -3 -6 -6z"/>
<path d="M921 3854 c-178 -48 -303 -186 -333 -369 -22 -132 28 -282 126 -381
58 -57 149 -108 217 -119 35 -6 39 -10 55 -58 9 -29 17 -53 18 -54 3 -4 357
105 364 112 3 3 -1 29 -10 58 l-14 54 28 34 c45 53 88 148 100 222 29 177 -65
373 -220 455 -112 60 -223 75 -331 46z m54 -54 c10 -17 -37 -49 -72 -50 -39 0
-44 21 -11 44 25 18 74 21 83 6z m-155 -65 c0 -3 -21 -31 -46 -62 -61 -75 -85
-133 -91 -219 -6 -75 11 -154 49 -227 10 -21 17 -42 14 -45 -11 -11 -67 52
-92 105 -68 137 -20 338 100 423 38 27 66 37 66 25z"/>
<path d="M2521 3854 c0 -11 3 -14 6 -6 3 7 2 16 -1 19 -3 4 -6 -2 -5 -13z"/>
<path d="M3168 3863 c7 -3 16 -2 19 1 4 3 -2 6 -13 5 -11 0 -14 -3 -6 -6z"/>
<path d="M2985 3820 c-13 -5 -14 -9 -5 -9 8 0 24 4 35 9 13 5 14 9 5 9 -8 0
-24 -4 -35 -9z"/>
<path d="M2938 3803 c7 -3 16 -2 19 1 4 3 -2 6 -13 5 -11 0 -14 -3 -6 -6z"/>
<path d="M2898 3793 c7 -3 16 -2 19 1 4 3 -2 6 -13 5 -11 0 -14 -3 -6 -6z"/>
<path d="M2541 3774 c0 -11 3 -14 6 -6 3 7 2 16 -1 19 -3 4 -6 -2 -5 -13z"/>
<path d="M2818 3773 c7 -3 16 -2 19 1 4 3 -2 6 -13 5 -11 0 -14 -3 -6 -6z"/>
<path d="M2551 3734 c0 -11 3 -14 6 -6 3 7 2 16 -1 19 -3 4 -6 -2 -5 -13z"/>
<path d="M2668 3733 c7 -3 16 -2 19 1 4 3 -2 6 -13 5 -11 0 -14 -3 -6 -6z"/>
<path d="M2628 3723 c7 -3 16 -2 19 1 4 3 -2 6 -13 5 -11 0 -14 -3 -6 -6z"/>
<path d="M2588 3713 c7 -3 16 -2 19 1 4 3 -2 6 -13 5 -11 0 -14 -3 -6 -6z"/>
<path d="M4955 3675 c-54 -17 -33 -18 30 -1 28 8 41 14 30 14 -11 0 -38 -5
-60 -13z"/>
<path d="M4888 3653 c7 -3 16 -2 19 1 4 3 -2 6 -13 5 -11 0 -14 -3 -6 -6z"/>
<path d="M4848 3643 c7 -3 16 -2 19 1 4 3 -2 6 -13 5 -11 0 -14 -3 -6 -6z"/>
<path d="M16230 3574 c-118 -40 -216 -74 -217 -74 -11 0 110 -361 213 -637
l16 -41 56 18 c32 10 219 69 417 130 198 61 375 117 393 123 l33 12 -28 7
c-77 22 -325 51 -416 48 -36 -1 -62 4 -71 12 -11 12 -34 68 -40 101 -2 7 -9
31 -16 55 -11 34 -11 50 -2 76 16 44 15 98 -2 122 -13 16 -18 17 -36 6 -16
-10 -21 -10 -24 0 -3 7 -12 37 -21 66 -9 28 -22 52 -28 51 -7 0 -109 -34 -227
-75z m340 -118 c0 -17 -4 -38 -10 -46 -7 -11 -11 -9 -19 13 -13 32 -14 80 -4
91 12 12 33 -26 33 -58z m-209 -346 c40 -22 11 -88 -34 -76 -34 8 -44 41 -21
67 20 22 28 23 55 9z"/>
<path d="M4780 3630 c-20 -6 -21 -8 -5 -8 11 0 29 3 40 8 25 11 -1 11 -35 0z"/>
<path d="M4667 3603 c-32 -9 -56 -17 -54 -20 5 -4 129 26 136 33 8 7 -23 2
-82 -13z"/>
<path d="M4578 3573 c7 -3 16 -2 19 1 4 3 -2 6 -13 5 -11 0 -14 -3 -6 -6z"/>
<path d="M4485 3555 c-22 -8 -33 -14 -25 -14 8 0 35 6 60 13 25 8 36 14 25 14
-11 0 -38 -6 -60 -13z"/>
<path d="M4389 3525 c-15 -8 -32 -29 -38 -47 -12 -34 -5 -32 13 4 6 13 27 31
46 40 19 10 28 18 20 18 -8 -1 -27 -7 -41 -15z"/>
<path d="M4351 3430 c0 -8 10 -55 23 -105 13 -49 24 -83 25 -75 0 8 -10 56
-23 105 -13 50 -24 83 -25 75z"/>
<path d="M4970 3343 c0 -3 13 -60 29 -127 16 -66 35 -147 42 -178 8 -32 16
-58 19 -58 3 0 63 58 135 130 87 88 124 131 114 134 -8 3 -75 24 -149 46 -74
23 -147 45 -162 50 -16 5 -28 6 -28 3z"/>
<path d="M4401 3214 c0 -11 3 -14 6 -6 3 7 2 16 -1 19 -3 4 -6 -2 -5 -13z"/>
<path d="M4410 3186 c0 -18 32 -147 36 -143 5 4 -25 139 -32 146 -2 2 -4 1 -4
-3z"/>
<path d="M4451 3020 c0 -8 6 -37 13 -65 8 -27 15 -43 15 -35 0 8 -6 38 -13 65
-8 28 -15 43 -15 35z"/>
<path d="M1180 2898 c-85 -28 -158 -55 -162 -62 -4 -6 -1 -17 6 -24 20 -21
361 88 361 114 0 31 -40 26 -205 -28z"/>
<path d="M4481 2884 c0 -11 3 -14 6 -6 3 7 2 16 -1 19 -3 4 -6 -2 -5 -13z"/>
<path d="M1202 2828 c-145 -46 -163 -54 -160 -72 2 -17 9 -21 34 -19 24 2 39
-6 69 -37 22 -22 46 -40 55 -40 8 0 42 9 75 19 61 19 84 42 85 86 1 39 12 63
32 68 26 7 20 41 -7 44 -11 1 -93 -21 -183 -49z"/>
<path d="M4491 2844 c0 -11 3 -14 6 -6 3 7 2 16 -1 19 -3 4 -6 -2 -5 -13z"/>
<path d="M4501 2804 c0 -11 3 -14 6 -6 3 7 2 16 -1 19 -3 4 -6 -2 -5 -13z"/>
<path d="M4512 2765 c0 -11 3 -29 8 -40 11 -25 11 1 0 35 -6 20 -8 21 -8 5z"/>
<path d="M4532 2680 c0 -14 2 -19 5 -12 2 6 2 18 0 25 -3 6 -5 1 -5 -13z"/>
<path d="M4998 2663 c7 -3 16 -2 19 1 4 3 -2 6 -13 5 -11 0 -14 -3 -6 -6z"/>
<path d="M4540 2639 c0 -20 37 -69 53 -69 7 0 4 5 -6 11 -11 6 -25 25 -33 43
-7 17 -13 24 -14 15z"/>
<path d="M4928 2643 c7 -3 16 -2 19 1 4 3 -2 6 -13 5 -11 0 -14 -3 -6 -6z"/>
<path d="M4848 2623 c7 -3 16 -2 19 1 4 3 -2 6 -13 5 -11 0 -14 -3 -6 -6z"/>
<path d="M4808 2613 c7 -3 16 -2 19 1 4 3 -2 6 -13 5 -11 0 -14 -3 -6 -6z"/>
<path d="M4768 2603 c7 -3 16 -2 19 1 4 3 -2 6 -13 5 -11 0 -14 -3 -6 -6z"/>
<path d="M4688 2583 c6 -2 18 -2 25 0 6 3 1 5 -13 5 -14 0 -19 -2 -12 -5z"/>
<path d="M4618 2563 c7 -3 16 -2 19 1 4 3 -2 6 -13 5 -11 0 -14 -3 -6 -6z"/>
</g>
</svg>
