<?xml version="1.0" standalone="no"?>
<!DOCTYPE svg PUBLIC "-//W3C//DTD SVG 20010904//EN"
 "http://www.w3.org/TR/2001/REC-SVG-20010904/DTD/svg10.dtd">
<svg version="1.0" xmlns="http://www.w3.org/2000/svg"
 width="498.000000pt" height="501.000000pt" viewBox="0 0 498.000000 501.000000"
 preserveAspectRatio="xMidYMid meet">

<g transform="translate(0.000000,501.000000) scale(0.100000,-0.100000)"
fill="#000000" stroke="none">
<path d="M2753 4571 c-46 -21 -73 -62 -73 -111 0 -22 97 -208 327 -628 179
-328 398 -727 485 -887 87 -159 170 -300 184 -312 68 -61 204 6 204 100 0 12
-85 178 -188 368 -200 364 -700 1278 -759 1386 -53 96 -103 119 -180 84z"/>
<path d="M2563 4138 c-258 -355 -583 -809 -583 -815 0 -4 82 -157 182 -340
l182 -333 46 0 c25 0 117 5 205 10 221 14 865 50 887 50 10 0 18 4 18 9 0 5
-23 51 -52 102 -28 52 -215 393 -415 759 -200 366 -368 669 -372 673 -5 5 -49
-47 -98 -115z"/>
<path d="M3372 3898 c1 -8 53 -106 113 -217 108 -197 110 -201 127 -180 43 52
50 168 14 244 -41 90 -114 144 -214 160 -36 6 -43 4 -40 -7z"/>
<path d="M1485 3750 c-656 -5 -660 -5 -701 -27 -63 -34 -97 -66 -129 -125
l-30 -53 -3 -1277 -2 -1278 1940 0 1940 0 0 1254 c0 1415 6 1314 -78 1407 -83
93 -86 94 -408 97 l-280 3 10 -61 c9 -58 2 -129 -19 -182 -7 -17 9 -18 237
-18 176 0 247 -3 256 -12 9 -9 12 -276 12 -1140 l0 -1128 -1672 2 -1673 3 -3
1118 c-1 759 1 1124 8 1138 10 18 26 19 549 19 l537 0 59 83 c33 45 74 103 92
129 19 25 30 48 26 50 -4 2 -305 1 -668 -2z"/>
<path d="M1605 3160 c-121 -66 -226 -128 -233 -138 -8 -10 -11 -30 -8 -50 5
-31 2 -34 -48 -62 -52 -30 -76 -61 -76 -102 0 -26 245 -477 272 -500 29 -26
83 -22 137 9 l48 26 21 -21 c12 -12 32 -22 44 -22 29 0 466 238 478 261 6 10
10 27 10 38 0 20 -329 631 -358 664 -8 9 -27 17 -41 17 -14 0 -125 -54 -246
-120z"/>
<path d="M2018 2314 c-76 -41 -138 -80 -138 -86 0 -19 362 -673 383 -691 12
-11 29 -16 41 -13 31 8 248 126 274 149 37 34 28 59 -59 159 -164 189 -267
342 -327 490 -15 37 -29 68 -32 68 -3 0 -67 -34 -142 -76z"/>
<path d="M492 798 c3 -74 10 -105 31 -151 26 -57 124 -172 156 -182 9 -3 22
-18 28 -35 l11 -30 2005 0 c1810 0 2007 2 2021 16 21 20 20 30 -4 54 -18 18
-33 20 -141 20 l-122 0 43 46 c67 72 102 158 108 265 l5 89 -2073 0 -2072 0 4
-92z"/>
<path d="M240 470 c-24 -24 -25 -34 -4 -54 23 -23 285 -23 308 0 21 20 20 30
-4 54 -18 18 -33 20 -150 20 -117 0 -132 -2 -150 -20z"/>
</g>
</svg>
