<?xml version="1.0" standalone="no"?>
<!DOCTYPE svg PUBLIC "-//W3C//DTD SVG 20010904//EN"
 "http://www.w3.org/TR/2001/REC-SVG-20010904/DTD/svg10.dtd">
<svg version="1.0" xmlns="http://www.w3.org/2000/svg"
 width="500.000000pt" height="500.000000pt" viewBox="0 0 500.000000 500.000000"
 preserveAspectRatio="xMidYMid meet">

<g transform="translate(0.000000,500.000000) scale(0.100000,-0.100000)"
fill="#000000" stroke="none">
<path d="M889 4952 c-132 -49 -228 -135 -287 -260 -33 -70 -37 -86 -40 -177
-3 -83 0 -111 18 -164 102 -302 449 -425 716 -253 135 87 214 234 214 397 0
269 -211 477 -484 474 -58 0 -107 -7 -137 -17z"/>
<path d="M2136 4930 c-35 -11 -72 -44 -94 -85 -15 -27 -17 -92 -20 -602 -2
-315 1 -573 5 -572 4 0 39 37 78 82 73 84 133 130 198 149 l37 11 0 359 0 358
1173 -2 1172 -3 2 -1015 c1 -558 -1 -1030 -4 -1047 l-5 -33 -1169 0 -1169 0 0
165 c0 91 -2 165 -4 165 -3 0 -29 -25 -58 -57 -67 -71 -126 -109 -194 -124
-53 -12 -53 -12 -60 -57 -4 -25 -4 -101 -1 -168 5 -135 17 -168 70 -208 28
-21 39 -21 493 -24 255 -1 464 -5 464 -8 0 -3 -40 -188 -90 -412 -239 -1084
-350 -1597 -350 -1620 0 -45 37 -107 79 -130 45 -26 109 -29 151 -7 68 35 74
53 169 491 50 225 153 694 230 1042 78 348 141 635 141 638 0 2 62 3 137 2
l137 -3 9 -45 c5 -25 91 -418 192 -875 101 -456 200 -906 220 -1000 39 -181
57 -220 115 -250 44 -23 121 -19 160 7 41 29 70 82 70 129 0 20 -38 211 -85
425 -47 214 -106 484 -131 599 -25 116 -83 380 -129 587 -47 207 -86 387 -88
400 l-2 23 457 5 c518 6 490 1 536 91 l22 44 -2 1235 -3 1235 -22 35 c-12 19
-37 44 -55 55 -33 20 -52 20 -1393 22 -748 1 -1373 -2 -1389 -7z"/>
<path d="M3465 4028 c-16 -6 -228 -80 -470 -165 -407 -144 -442 -154 -470
-143 -74 30 -104 34 -151 22 -63 -17 -77 -30 -250 -230 -82 -95 -152 -175
-156 -178 -4 -2 -62 43 -130 101 l-123 104 -3 -262 -3 -262 58 -53 c97 -89
140 -115 200 -120 93 -8 131 14 235 137 314 368 279 333 433 425 77 46 259
153 405 238 564 330 550 320 516 373 -18 27 -41 30 -91 13z"/>
<path d="M886 3909 c-104 -15 -152 -46 -318 -201 -84 -80 -236 -221 -337 -314
-113 -104 -192 -184 -205 -209 -26 -51 -26 -127 0 -176 10 -20 127 -157 259
-304 255 -285 278 -304 363 -305 114 0 202 87 202 201 0 28 -7 65 -15 82 -8
18 -87 113 -175 211 -88 99 -160 183 -160 186 0 6 112 108 333 304 48 43 90
77 92 75 2 -2 -50 -77 -116 -166 -65 -89 -119 -165 -119 -167 0 -3 63 -75 139
-161 175 -195 196 -234 195 -360 -1 -111 -26 -183 -89 -253 -82 -91 -223 -142
-340 -122 -27 4 -53 5 -56 2 -3 -4 -3 -464 0 -1023 l6 -1016 30 -49 c17 -27
51 -62 75 -79 41 -28 52 -30 130 -30 75 0 90 3 125 26 52 34 69 54 94 109 20
44 21 62 21 813 l0 767 90 0 91 0 -3 -783 -3 -782 -22 -55 c-13 -30 -23 -56
-23 -57 0 -2 18 -12 40 -23 55 -28 151 -27 205 1 58 31 85 58 111 114 l24 50
0 1681 c0 1863 5 1719 -65 1829 -99 157 -309 223 -579 184z"/>
</g>
</svg>
