<?xml version="1.0" standalone="no"?>
<!DOCTYPE svg PUBLIC "-//W3C//DTD SVG 20010904//EN"
 "http://www.w3.org/TR/2001/REC-SVG-20010904/DTD/svg10.dtd">
<svg version="1.0" xmlns="http://www.w3.org/2000/svg"
 width="511.000000pt" height="331.000000pt" viewBox="0 0 511.000000 331.000000"
 preserveAspectRatio="xMidYMid meet">

<g transform="translate(0.000000,331.000000) scale(0.100000,-0.100000)"
fill="#000000" stroke="none">
<path d="M2415 2811 c-266 -78 -426 -311 -395 -577 25 -222 182 -403 397 -459
72 -19 212 -19 282 0 179 47 329 198 377 378 30 114 14 278 -38 382 -112 223
-387 345 -623 276z m305 -52 c80 -33 127 -65 180 -120 161 -167 186 -423 62
-615 -87 -134 -214 -212 -373 -229 -228 -24 -455 133 -524 362 -22 70 -19 211
4 281 56 166 185 293 342 337 80 22 237 14 309 -16z"/>
<path d="M2405 2530 c-13 -20 8 -30 64 -30 68 0 118 -15 131 -40 17 -31 -11
-42 -101 -39 -56 1 -84 -2 -87 -9 -3 -9 25 -12 97 -12 55 0 102 -4 106 -9 10
-17 -18 -62 -49 -78 -17 -9 -61 -18 -98 -21 -86 -6 -92 -20 -16 -36 19 -4 49
-35 105 -108 74 -96 103 -124 103 -98 0 6 -27 50 -60 97 -33 48 -60 92 -60
100 0 7 21 23 47 35 38 18 50 30 67 70 13 32 28 51 45 57 25 9 25 9 4 10 -15
1 -31 15 -49 42 -30 48 -23 59 39 59 20 0 37 5 37 10 0 6 -60 10 -159 10 -96
0 -162 -4 -166 -10z"/>
<path d="M1685 1643 c-149 -20 -293 -77 -453 -179 -360 -230 -822 -550 -822
-571 0 -8 52 -112 116 -231 64 -119 151 -281 193 -359 42 -79 81 -143 87 -143
6 0 51 24 100 53 202 122 388 208 532 248 70 20 108 22 426 26 377 6 471 -1
630 -43 222 -58 355 -35 575 101 93 58 208 114 461 228 80 35 168 75 195 87
93 43 369 179 465 230 52 27 138 66 190 86 52 21 148 63 213 96 114 57 117 59
117 92 0 35 -34 94 -73 127 -35 30 -124 52 -181 46 -69 -7 -150 -36 -356 -127
-685 -304 -668 -298 -1090 -361 -117 -18 -501 -18 -607 0 -68 11 -83 17 -83
31 0 10 8 21 18 25 9 5 125 11 257 16 303 9 438 27 805 105 144 30 177 44 186
80 19 74 -27 143 -126 192 l-55 27 -235 -2 c-144 -1 -286 -7 -366 -17 -149
-18 -180 -15 -364 41 -246 74 -420 104 -602 102 -68 -1 -136 -4 -153 -6z"/>
</g>
</svg>
