<?xml version="1.0" standalone="no"?>
<!DOCTYPE svg PUBLIC "-//W3C//DTD SVG 20010904//EN"
 "http://www.w3.org/TR/2001/REC-SVG-20010904/DTD/svg10.dtd">
<svg version="1.0" xmlns="http://www.w3.org/2000/svg"
 width="466.000000pt" height="453.000000pt" viewBox="0 0 466.000000 453.000000"
 preserveAspectRatio="xMidYMid meet">

<g transform="translate(0.000000,453.000000) scale(0.100000,-0.100000)"
fill="#000000" stroke="none">
<path d="M1445 4254 c-256 -39 -473 -174 -612 -379 -80 -119 -126 -240 -149
-397 -15 -105 -11 -209 13 -305 l5 -23 403 0 402 0 17 88 c106 555 119 612
144 637 33 33 72 32 104 -2 26 -28 47 -117 123 -518 16 -83 41 -213 61 -310
19 -95 42 -216 56 -298 6 -37 16 -66 22 -64 5 2 22 48 37 103 15 54 61 216
102 359 64 221 79 263 102 283 31 26 65 24 99 -6 10 -9 46 -73 80 -142 l61
-125 91 -3 91 -3 22 61 c31 85 122 178 206 210 84 34 206 34 290 0 82 -32 173
-122 206 -205 33 -83 33 -205 0 -289 -33 -82 -125 -175 -206 -206 -84 -33
-207 -34 -287 -2 -67 27 -148 97 -184 158 l-26 44 -142 0 c-163 0 -154 -4
-203 94 -17 33 -32 55 -35 50 -3 -5 -59 -197 -124 -428 -127 -447 -135 -466
-194 -466 -54 0 -74 32 -99 160 -12 63 -26 135 -32 160 -5 25 -39 194 -74 375
-82 419 -88 445 -95 445 -4 0 -15 -44 -25 -97 -31 -171 -52 -253 -70 -273 -17
-19 -34 -20 -417 -20 -328 0 -398 -2 -398 -14 0 -16 58 -96 114 -155 23 -23
122 -113 221 -199 224 -195 228 -198 295 -258 31 -27 82 -72 115 -100 33 -29
152 -132 265 -230 429 -374 427 -373 464 -380 71 -13 100 1 225 109 446 386
557 482 561 487 3 3 73 64 155 135 83 71 152 132 155 135 3 3 71 63 151 133
207 179 287 272 349 411 114 251 112 506 -5 761 -152 329 -529 544 -884 504
-253 -29 -443 -126 -597 -308 -36 -42 -70 -76 -74 -76 -5 0 -34 30 -65 67 -72
88 -163 163 -265 217 -162 86 -369 123 -545 95z"/>
<path d="M2994 3355 c-84 -27 -152 -82 -188 -152 -25 -50 -22 -53 54 -53 64 0
73 3 116 35 76 58 166 45 219 -32 48 -72 22 -178 -55 -218 -16 -8 -49 -15 -74
-15 -35 0 -54 7 -90 35 -43 32 -52 35 -116 35 -76 0 -79 -3 -54 -53 57 -113
200 -184 317 -157 71 17 115 41 158 87 113 118 113 288 0 406 -41 44 -72 62
-140 83 -55 17 -92 16 -147 -1z"/>
<path d="M361 2671 c-59 -24 -106 -78 -125 -142 -24 -79 -24 -939 0 -1020 15
-52 35 -73 525 -564 l509 -510 2 -180 3 -180 445 0 445 0 3 350 c3 439 -6 524
-72 660 -91 186 -243 290 -475 323 l-121 18 -132 131 c-121 119 -138 133 -190
148 -54 15 -62 15 -113 0 -139 -40 -202 -185 -136 -313 11 -20 114 -131 230
-247 116 -115 211 -215 211 -221 0 -6 -8 -18 -18 -27 -17 -15 -32 -2 -258 226
-243 244 -274 283 -274 349 0 28 -11 45 -75 108 l-75 74 0 411 c0 459 -3 485
-65 553 -37 41 -109 72 -165 71 -19 0 -55 -8 -79 -18z"/>
<path d="M4111 2671 c-24 -10 -59 -34 -77 -54 -61 -66 -64 -94 -64 -552 l0
-411 -75 -74 c-64 -63 -75 -80 -75 -108 0 -66 -31 -105 -274 -349 -226 -228
-241 -241 -258 -226 -10 9 -18 21 -18 27 0 6 95 106 211 221 116 116 219 226
229 245 67 129 5 275 -135 315 -51 15 -59 15 -112 0 -53 -15 -70 -29 -191
-148 l-132 -131 -121 -18 c-104 -15 -135 -24 -213 -62 -83 -40 -119 -69 -202
-160 -22 -24 -74 -123 -95 -182 -20 -55 -22 -89 -32 -480 -6 -231 -7 -428 -4
-438 6 -15 43 -16 449 -14 l443 3 3 180 2 180 509 510 c490 491 510 512 525
564 24 80 24 941 0 1020 -20 68 -69 122 -131 144 -60 21 -106 21 -162 -2z"/>
</g>
</svg>
