<?xml version="1.0" standalone="no"?>
<!DOCTYPE svg PUBLIC "-//W3C//DTD SVG 20010904//EN"
 "http://www.w3.org/TR/2001/REC-SVG-20010904/DTD/svg10.dtd">
<svg version="1.0" xmlns="http://www.w3.org/2000/svg"
 width="500.000000pt" height="500.000000pt" viewBox="0 0 500.000000 500.000000"
 preserveAspectRatio="xMidYMid meet">

<g transform="translate(0.000000,500.000000) scale(0.100000,-0.100000)"
fill="#000000" stroke="none">
<path d="M3388 4914 c-19 -10 -32 -29 -41 -62 l-14 -47 -60 -5 c-81 -7 -123
-41 -142 -117 -6 -24 -11 -143 -11 -276 l0 -235 -72 -4 c-128 -7 -232 -73
-288 -184 l-25 -49 0 -840 c0 -813 1 -842 20 -885 23 -54 72 -114 118 -145 30
-21 34 -30 45 -101 9 -55 21 -92 42 -125 96 -149 314 -173 437 -47 47 48 83
123 83 173 0 23 5 35 16 37 9 2 85 1 168 -2 l151 -5 7 -52 c5 -30 21 -74 38
-102 97 -157 326 -176 448 -36 48 54 65 94 70 167 4 64 7 69 37 88 47 29 99
90 127 147 l23 48 0 830 0 830 -24 58 c-45 109 -160 187 -291 197 l-75 5 -5
265 c-4 238 -7 268 -24 297 -23 38 -77 64 -134 65 -47 0 -57 9 -67 55 -3 18
-18 42 -32 53 -24 19 -40 20 -262 20 -189 -1 -241 -4 -263 -16z m412 -184 l0
-51 -152 3 -153 3 -3 33 c-6 62 -7 62 158 62 l150 0 0 -50z m-464 -87 c19 -58
31 -77 58 -94 28 -17 53 -19 256 -19 204 0 228 2 256 19 22 13 34 31 40 57 10
41 32 61 58 51 14 -6 16 -33 16 -247 l0 -240 -372 2 -373 3 -3 229 c-2 160 1
233 9 242 16 20 49 17 55 -3z m1003 -656 c28 -19 49 -43 62 -72 19 -42 19 -72
17 -837 -3 -880 1 -824 -71 -882 l-39 -31 -645 -3 -645 -2 -45 22 c-25 12 -55
36 -66 53 l-22 30 -3 785 c-2 432 0 804 3 826 8 53 56 110 110 129 33 12 147
14 671 12 l630 -2 43 -28z m-109 -2008 c0 -56 -68 -119 -128 -119 -68 0 -132
51 -132 106 0 17 2 33 4 35 2 2 61 3 130 1 118 -3 126 -4 126 -23z m-900 6 c0
-60 -68 -125 -130 -125 -69 0 -130 54 -130 114 l0 26 130 0 c110 0 130 -2 130
-15z"/>
<path d="M1356 3769 c-19 -15 -26 -30 -26 -53 0 -47 30 -70 99 -76 52 -5 56
-7 59 -33 4 -31 9 -28 -113 -51 -170 -33 -363 -152 -483 -299 -121 -150 -202
-356 -202 -514 l0 -43 -57 0 c-96 0 -149 -47 -123 -109 15 -37 48 -51 120 -51
l60 0 0 -57 c1 -78 27 -134 81 -170 l43 -28 728 -3 c474 -1 743 1 767 8 81 22
121 77 130 180 l6 65 50 3 c28 1 60 5 73 7 33 8 62 41 62 73 -1 55 -45 82
-136 82 l-54 0 0 43 c-2 232 -140 493 -340 647 -122 93 -221 137 -372 167
l-89 17 3 30 c3 30 5 31 66 37 45 4 67 11 77 25 22 29 18 77 -8 102 -22 21
-32 22 -209 22 -172 0 -187 -1 -212 -21z m426 -379 c123 -37 257 -128 349
-238 42 -51 118 -184 119 -209 0 -7 6 -32 14 -55 8 -24 17 -76 21 -115 l7 -73
-726 0 -725 0 5 68 c12 141 70 280 165 398 176 217 490 308 771 224z m506
-902 l-3 -53 -709 -3 c-515 -1 -713 1 -722 9 -8 7 -14 31 -14 55 l0 44 726 0
725 0 -3 -52z"/>
<path d="M482 1662 c-12 -4 -38 -19 -56 -34 -66 -53 -66 -57 -65 -775 1 -730
-1 -713 77 -768 l44 -30 168 -3 c196 -5 265 6 303 46 32 33 57 91 57 130 0 16
6 34 13 40 6 5 51 18 99 28 79 16 103 17 270 6 700 -47 1098 -35 1478 48 163
35 242 56 369 97 104 33 327 136 621 286 355 181 384 197 423 241 58 64 81
124 82 206 0 91 -31 166 -94 229 -61 61 -120 85 -216 85 -70 1 -88 -3 -145
-31 -36 -17 -153 -74 -260 -126 -774 -376 -785 -381 -866 -390 l-42 -5 57 57
c72 72 96 134 89 230 -8 114 -70 201 -175 249 -35 16 -96 17 -768 17 -664 0
-738 -2 -815 -18 -47 -10 -93 -20 -102 -23 -15 -4 -18 1 -18 33 0 53 -42 134
-82 158 -30 18 -53 20 -228 22 -107 1 -205 -1 -218 -5z m373 -802 l0 -655
-165 0 -165 0 -3 658 -2 657 167 -2 168 -3 0 -655z m1802 474 c103 -50 112
-182 17 -245 -27 -18 -54 -19 -434 -19 -365 0 -408 -2 -440 -18 -30 -15 -35
-22 -38 -58 -5 -73 -7 -73 328 -77 l295 -3 70 -36 c119 -60 184 -78 286 -78
50 0 117 7 148 15 32 8 179 74 327 146 148 72 384 187 524 255 139 69 264 127
277 130 87 22 185 -43 198 -129 9 -57 -7 -116 -39 -146 -39 -37 -699 -369
-869 -437 -304 -123 -691 -197 -1092 -210 -179 -6 -308 -1 -822 27 -189 11
-220 10 -280 -5 -38 -9 -76 -16 -86 -16 -16 0 -17 25 -15 432 l3 433 75 18
c126 31 191 34 873 36 592 1 662 -1 694 -15z"/>
<path d="M1297 1208 c-26 -21 -37 -64 -37 -147 0 -87 13 -137 40 -151 30 -16
68 -12 90 10 18 18 20 33 20 140 0 107 -2 122 -20 140 -23 23 -68 26 -93 8z"/>
<path d="M1303 738 c-39 -19 -48 -94 -17 -129 23 -25 78 -25 104 1 29 29 27
84 -5 115 -26 27 -47 30 -82 13z"/>
</g>
</svg>
