<?xml version="1.0" standalone="no"?>
<!DOCTYPE svg PUBLIC "-//W3C//DTD SVG 20010904//EN"
 "http://www.w3.org/TR/2001/REC-SVG-20010904/DTD/svg10.dtd">
<svg version="1.0" xmlns="http://www.w3.org/2000/svg"
 width="503.000000pt" height="496.000000pt" viewBox="0 0 503.000000 496.000000"
 preserveAspectRatio="xMidYMid meet">

<g transform="translate(0.000000,496.000000) scale(0.100000,-0.100000)"
fill="#000000" stroke="none">
<path d="M2478 4579 c-15 -8 -18 -24 -18 -90 l0 -79 -55 -25 c-294 -130 -526
-785 -585 -1653 -5 -85 -10 -198 -10 -253 0 -120 4 -122 106 -50 91 63 189
112 289 144 84 26 230 51 246 41 5 -3 9 -99 9 -213 l0 -208 -47 -45 c-176
-163 -434 -242 -686 -210 -93 12 -131 3 -152 -37 -20 -40 -38 -268 -31 -386
16 -231 57 -399 141 -571 144 -295 390 -509 718 -620 88 -30 106 -30 193 0
588 200 905 723 853 1410 -6 80 -16 151 -24 166 -21 41 -62 52 -153 39 -90
-13 -229 -6 -321 17 -131 32 -288 122 -379 216 l-32 34 2 205 3 204 60 -4
c153 -9 339 -82 499 -196 79 -57 86 -52 86 63 0 120 -15 343 -35 522 -54 475
-168 887 -317 1142 -61 103 -178 220 -245 244 l-53 19 0 82 c0 71 -3 84 -19
93 -23 12 -22 12 -43 -1z m-644 -2845 c20 -20 20 -58 0 -78 -49 -49 -114 24
-67 76 20 22 46 23 67 2z m-5 -148 c6 -7 16 -66 22 -130 12 -129 6 -149 -40
-144 -37 4 -51 42 -58 157 -7 109 1 131 42 131 12 0 28 -6 34 -14z m1031 -32
c71 -29 106 -107 77 -176 -10 -23 -77 -90 -208 -208 -107 -95 -207 -181 -224
-191 -36 -23 -95 -24 -134 -4 -28 14 -220 209 -248 252 -8 12 -15 42 -15 67 0
78 59 136 137 136 49 0 69 -12 140 -81 l60 -59 125 111 c146 130 178 155 205
162 35 8 44 7 85 -9z"/>
<path d="M2088 4364 c-552 -114 -1014 -427 -1331 -902 -133 -199 -253 -495
-298 -736 -26 -136 -19 -180 31 -216 53 -38 88 -36 186 8 192 86 355 115 537
95 160 -18 351 -88 457 -168 24 -17 36 -22 37 -13 1 7 7 101 13 208 42 778
210 1396 457 1688 30 34 48 62 41 61 -7 0 -66 -11 -130 -25z m-417 -364 c12
-7 19 -21 19 -40 0 -24 -8 -33 -55 -60 -64 -37 -101 -35 -111 5 -8 32 7 50 65
80 53 28 56 28 82 15z m-283 -202 c25 -25 9 -51 -89 -146 -56 -53 -129 -131
-162 -172 -33 -41 -68 -82 -78 -92 -38 -33 -92 10 -68 55 28 52 110 150 216
255 90 89 119 112 141 112 15 0 33 -5 40 -12z"/>
<path d="M2796 4358 c177 -187 322 -557 408 -1038 44 -246 54 -339 84 -793 l7
-108 35 26 c130 98 373 175 551 175 151 0 322 -41 458 -110 33 -16 73 -30 88
-30 44 0 95 33 117 75 18 35 18 44 7 114 -46 277 -156 561 -308 791 -88 133
-136 193 -243 304 -177 185 -363 321 -591 430 -197 95 -382 154 -604 191 l-40
7 31 -34z"/>
</g>
</svg>
