<?xml version="1.0" standalone="no"?>
<!DOCTYPE svg PUBLIC "-//W3C//DTD SVG 20010904//EN"
 "http://www.w3.org/TR/2001/REC-SVG-20010904/DTD/svg10.dtd">
<svg version="1.0" xmlns="http://www.w3.org/2000/svg"
 width="548.000000pt" height="455.000000pt" viewBox="0 0 548.000000 455.000000"
 preserveAspectRatio="xMidYMid meet">

<g transform="translate(0.000000,455.000000) scale(0.100000,-0.100000)"
fill="#000000" stroke="none">
<path d="M2773 4122 l-82 -3 -3 -117 -3 -117 -75 -1 -75 -1 -3 -1225 -2 -1225
87 -16 c223 -41 283 -50 288 -45 3 3 4 100 3 217 l-3 211 -103 -80 c-56 -44
-107 -80 -112 -80 -6 0 -10 97 -10 269 l0 268 155 119 c85 66 155 121 155 124
0 3 -54 4 -120 2 -93 -2 -120 0 -121 10 -1 10 0 291 1 321 0 4 74 7 165 7
l164 0 3 -135 3 -134 62 47 62 47 1 72 c0 107 -5 103 119 103 l106 0 143 111
c131 102 146 111 168 100 l24 -11 0 460 0 459 -77 3 -78 3 -3 118 -3 117 -107
1 c-226 3 -651 4 -729 1z m307 -592 l0 -170 -164 0 c-148 0 -164 2 -168 18 -7
29 -10 301 -3 312 4 6 67 10 171 10 l164 0 0 -170z m470 0 l0 -170 -167 2
-168 3 -3 155 c-1 85 0 160 2 167 4 10 45 13 171 13 l165 0 0 -170z m-472
-467 l-3 -168 -162 0 -163 0 -3 163 c-2 89 -1 165 2 167 2 3 78 5 168 5 l163
0 -2 -167z m470 0 l-3 -168 -165 0 -165 0 -2 160 c-1 87 1 163 3 167 3 4 79 8
170 8 l164 0 -2 -167z"/>
<path d="M3265 2514 c-253 -195 -468 -363 -478 -373 -16 -15 -17 -34 -15 -170
l3 -153 255 198 c468 363 692 534 698 534 4 0 216 -162 472 -361 256 -198 468
-363 473 -366 4 -2 7 67 7 154 l-1 158 -47 36 c-26 19 -239 185 -475 367 -235
183 -428 332 -430 332 -1 0 -209 -160 -462 -356z"/>
<path d="M1820 2750 l0 -70 -65 0 -65 0 0 -436 0 -435 48 -21 c26 -12 81 -44
122 -72 47 -31 90 -52 115 -56 31 -4 41 -10 43 -27 3 -17 68 -73 87 -73 3 0 5
23 5 50 l0 51 118 -3 117 -3 3 -90 c3 -95 8 -105 55 -105 l27 0 -2 608 -3 607
-57 3 -57 3 -3 67 -3 67 -242 3 -243 2 0 -70z m195 -410 l0 -115 -120 0 -120
0 -3 104 c-1 58 0 111 2 118 4 11 32 13 123 11 l118 -3 0 -115z m333 3 l-3
-118 -117 -3 -118 -3 0 121 0 120 120 0 121 0 -3 -117z m-333 -403 l0 -115
-117 -3 -118 -3 0 121 0 121 118 -3 117 -3 0 -115z m335 0 l0 -120 -120 0
-120 0 0 120 0 120 120 0 120 0 0 -120z"/>
<path d="M3405 2183 c-181 -135 -347 -259 -368 -275 l-37 -30 2 -266 3 -265
83 -18 c46 -10 98 -28 117 -39 33 -20 91 -80 110 -115 10 -16 17 -17 60 -9
l50 9 5 205 c5 193 6 208 30 253 52 102 139 151 270 151 100 0 156 -21 215
-79 63 -64 78 -110 83 -267 3 -76 8 -138 12 -138 3 0 85 16 180 35 95 19 186
35 202 35 l28 0 0 263 c0 239 -2 265 -17 279 -21 18 -693 518 -696 518 -1 0
-150 -111 -332 -247z"/>
<path d="M605 1845 l-25 -24 0 -576 c0 -562 0 -575 20 -595 19 -19 33 -20 210
-20 177 0 191 1 210 20 20 20 20 33 20 599 l0 580 -26 20 c-25 19 -40 21 -206
21 -177 0 -179 0 -203 -25z"/>
<path d="M1395 1746 c-5 -3 -65 -14 -132 -27 l-123 -22 0 -432 0 -433 78 -32
c124 -52 258 -125 577 -315 165 -98 330 -192 368 -207 37 -16 105 -34 151 -40
137 -18 203 0 559 151 1336 570 1615 692 1639 714 56 50 27 154 -49 173 -19 5
-200 -27 -577 -102 l-550 -109 -12 -47 c-25 -99 -90 -173 -175 -199 -43 -13
-1106 -1 -1132 13 -12 6 -17 18 -15 36 l3 27 556 -4 c613 -4 588 -6 643 59 55
67 55 153 0 220 -40 47 -65 56 -270 94 -104 20 -306 58 -449 85 -152 28 -286
59 -321 74 -34 13 -147 81 -250 149 -243 159 -269 170 -404 174 -58 2 -109 2
-115 0z"/>
</g>
</svg>
