<?xml version="1.0" standalone="no"?>
<!DOCTYPE svg PUBLIC "-//W3C//DTD SVG 20010904//EN"
 "http://www.w3.org/TR/2001/REC-SVG-20010904/DTD/svg10.dtd">
<svg version="1.0" xmlns="http://www.w3.org/2000/svg"
 width="499.000000pt" height="499.000000pt" viewBox="0 0 499.000000 499.000000"
 preserveAspectRatio="xMidYMid meet">

<g transform="translate(0.000000,499.000000) scale(0.100000,-0.100000)"
fill="#000000" stroke="none">
<path d="M1156 4964 c-162 -39 -311 -183 -366 -353 -20 -62 -22 -86 -18 -184
5 -122 22 -179 82 -267 44 -66 55 -77 119 -127 297 -231 737 -80 837 287 19
71 15 214 -9 291 -53 167 -208 315 -372 354 -79 18 -195 18 -273 -1z"/>
<path d="M2943 4965 c-225 -49 -403 -274 -403 -511 0 -388 408 -646 757 -479
125 61 221 165 269 291 71 190 24 412 -119 556 -133 135 -311 185 -504 143z"/>
<path d="M829 3926 c-119 -33 -217 -96 -270 -172 -42 -62 -54 -101 -105 -339
-25 -115 -57 -262 -71 -325 -13 -63 -33 -155 -43 -205 -10 -49 -34 -162 -53
-250 -20 -88 -38 -182 -42 -210 -12 -102 31 -226 104 -300 l40 -41 3 -924 c4
-1052 -1 -983 89 -1071 83 -81 200 -103 302 -56 69 32 122 86 147 154 20 52
20 75 20 923 l0 869 59 31 c111 60 166 140 200 292 35 160 81 376 81 382 0 15
22 2 66 -38 138 -124 325 -201 619 -255 196 -36 206 -36 269 -8 39 18 65 39
86 70 l31 44 139 17 c76 9 173 26 217 37 104 26 227 86 286 139 28 25 52 39
57 34 5 -5 29 -108 55 -229 25 -121 55 -248 66 -282 22 -68 78 -139 147 -187
35 -24 47 -27 102 -24 50 2 65 7 74 23 34 62 71 107 106 132 22 15 40 35 40
44 0 25 -56 257 -100 409 -37 131 -74 243 -139 423 -24 68 -29 92 -21 107 25
46 71 5 107 -93 61 -163 184 -590 223 -767 11 -52 23 -102 25 -111 4 -12 -7
-23 -40 -39 -55 -27 -111 -89 -135 -150 l-18 -45 -198 -5 -199 -5 0 -585 0
-585 798 -3 797 -2 0 590 0 590 -200 0 -199 0 -11 38 c-15 59 -64 119 -125
153 -34 19 -57 39 -60 52 -29 138 -273 1130 -341 1386 -49 187 -85 253 -168
310 -175 121 -433 84 -603 -86 -82 -82 -116 -162 -148 -353 -78 -459 -118
-494 -598 -524 -199 -13 -209 -14 -246 -40 -22 -15 -42 -34 -45 -42 -8 -21
-52 -17 -151 11 -98 29 -153 54 -208 98 -85 67 -121 162 -172 464 -41 241 -63
294 -160 389 -130 128 -326 184 -486 140z m3038 -1943 c19 -13 46 -18 88 -17
52 0 69 5 108 32 54 36 79 33 122 -14 50 -53 47 -54 -230 -54 -200 0 -255 3
-255 13 0 23 32 59 64 72 33 14 28 16 103 -32z"/>
<path d="M3414 656 c-3 -8 -4 -108 -2 -223 3 -192 5 -212 26 -258 84 -183 310
-225 450 -85 72 73 82 116 82 365 l0 215 -275 0 c-228 0 -277 -2 -281 -14z"/>
</g>
</svg>
